<?xml version="1.0" encoding="iso-8859-1"?>
<!-- Generator: Adobe Illustrator 19.0.0, SVG Export Plug-In . SVG Version: 6.00 Build 0)  -->
<svg version="1.1" id="Layer_1" xmlns="http://www.w3.org/2000/svg" xmlns:xlink="http://www.w3.org/1999/xlink" x="0px" y="0px"
	 viewBox="0 0 512 512" style="enable-background:new 0 0 512 512;" xml:space="preserve">
<g>
	<path style="fill:#BD8366;" d="M229.519,128c-4.873,0-8.828-3.955-8.828-8.828V22.069c0-4.873,3.955-8.828,8.828-8.828
		c4.873,0,8.828,3.955,8.828,8.828v97.103C238.347,124.046,234.392,128,229.519,128"/>
	<path style="fill:#F0C419;" d="M220.691,119.173H105.933c59.586,56.647,58.553,153.309,0,211.862h114.759
		C279.245,272.481,280.278,175.819,220.691,119.173"/>
	<path style="fill:#D69C77;" d="M497.982,251.587h-12.465c-24.391,0-44.138,19.738-44.138,44.138
		c0,43.917-35.531,79.448-79.448,79.448H75.238c-11.661,0-22.016-6.797-27.418-17.134c-5.208-9.966-12.509-18.176-12.509-18.176H0
		v105.931c0,34.154,27.639,61.793,61.793,61.793h335.448c48.799,0,88.276-39.486,88.276-88.276V308.966
		c0-7.309,5.932-13.241,13.241-13.241c7.318,0,13.241-5.932,13.241-13.241v-16.878C512,257.863,505.724,251.587,497.982,251.587"/>
	<path style="fill:#F0C419;" d="M273.657,331.035c58.553-58.553,59.586-155.215,0-211.862h-52.966
		c59.586,56.647,58.553,153.309,0,211.862H273.657z"/>
	<path style="fill:#8fae51;" d="M220.691,331.035c58.553-58.553,59.586-155.215,0-211.862h-52.966
		c59.586,56.647,58.553,153.309,0,211.862H220.691z"/>
	<polygon style="fill:#BD8366;" points="220.691,375.173 256.002,375.173 256.002,331.035 220.691,331.035 	"/>
	<path style="fill:#8fae51;" d="M238.347,13.237v52.966c-14.954-12.359-47.36-11.423-61.793,0s-38.012,12.359-52.966,0V13.237
		c14.954,12.359,38.532,11.423,52.966,0S223.499,1.135,238.347,13.237"/>
	<path style="fill:#BD8366;" d="M105.933,445.793c-2.26,0-4.52-0.865-6.241-2.587c-3.452-3.452-3.452-9.031,0-12.482l26.483-26.483
		c3.452-3.452,9.031-3.452,12.482,0c3.452,3.452,3.452,9.031,0,12.482l-26.483,26.483
		C110.453,444.928,108.193,445.793,105.933,445.793"/>
	<path style="fill:#F0C419;" d="M102.812,465.055c-8.616,8.616-21.195,10.019-28.089,3.125c-6.894-6.894-5.5-19.474,3.125-28.089
		c8.616-8.625,21.195-10.019,28.089-3.125C112.832,443.86,111.428,456.44,102.812,465.055"/>
	<path style="fill:#BD8366;" d="M282.205,445.793c-2.26,0-4.52-0.865-6.241-2.587c-3.452-3.452-3.452-9.031,0-12.482l26.483-26.483
		c3.452-3.452,9.031-3.452,12.482,0c3.452,3.452,3.452,9.031,0,12.482l-26.483,26.483
		C286.724,444.928,284.465,445.793,282.205,445.793"/>
	<path style="fill:#F0C419;" d="M279.083,465.055c-8.616,8.616-21.195,10.019-28.089,3.125c-6.894-6.894-5.5-19.474,3.125-28.089
		c8.616-8.625,21.195-10.019,28.089-3.125C289.103,443.86,287.699,456.44,279.083,465.055"/>
	<path style="fill:#BD8366;" d="M370.481,445.793c-2.26,0-4.52-0.865-6.241-2.587c-3.452-3.452-3.452-9.031,0-12.482l26.483-26.483
		c3.452-3.452,9.031-3.452,12.482,0c3.443,3.452,3.443,9.031,0,12.482l-26.483,26.483C375,444.928,372.74,445.793,370.481,445.793"
		/>
	<path style="fill:#F0C419;" d="M367.359,465.055c-8.616,8.616-21.195,10.019-28.089,3.125c-6.894-6.894-5.5-19.474,3.125-28.089
		c8.616-8.625,21.195-10.019,28.089-3.125C377.378,443.86,375.975,456.44,367.359,465.055"/>
	<path style="fill:#BD8366;" d="M193.929,445.793c-2.26,0-4.52-0.865-6.241-2.587c-3.452-3.452-3.452-9.031,0-12.482l26.483-26.483
		c3.452-3.452,9.031-3.452,12.482,0c3.452,3.452,3.452,9.031,0,12.482l-26.483,26.483
		C198.449,444.928,196.189,445.793,193.929,445.793"/>
	<path style="fill:#F0C419;" d="M190.807,465.055c-8.616,8.616-21.195,10.019-28.089,3.125c-6.894-6.894-5.5-19.474,3.125-28.089
		c8.616-8.625,21.195-10.019,28.089-3.125C200.827,443.86,199.423,456.44,190.807,465.055"/>
	<path style="fill:#8fae51;" d="M335.45,119.173h-61.793c59.586,56.647,58.553,153.309,0,211.862h61.793
		C394.003,272.481,395.036,175.819,335.45,119.173"/>
</g>
<g>
</g>
<g>
</g>
<g>
</g>
<g>
</g>
<g>
</g>
<g>
</g>
<g>
</g>
<g>
</g>
<g>
</g>
<g>
</g>
<g>
</g>
<g>
</g>
<g>
</g>
<g>
</g>
<g>
</g>
</svg>
